PathFileType	4	(X/Y/Z)	C:/Users/beibeiliu/ov580/test_trc/User3\sequence.12_training_dense_right.trc
DataRate	CameraRate	NumFrames	NumMarkers	Units	OrigDataRate	OrigDataStartFrame	OrigNumFrames
120	120	12	19	mm	120	26	101
Frame#	Time	ThumbCMC			ThumbMCP			ThumbIP			ThumbTip			IndexMCP			IndexPIP			IndexTip			MiddleMCP			MiddlePIP			MiddleTip			RingMCP			RingPIP			RingTip			PinkyMCP			PinkyPIP			PinkyTip			BackHand1			BackHand2			BackHand3	
		X0	Y0	Z0	X1	Y1	Z1	X2	Y2	Z2	X3	Y3	Z3	X4	Y4	Z4	X5	Y5	Z5	X6	Y6	Z6	X7	Y7	Z7	X8	Y8	Z8	X9	Y9	Z9	X10	Y10	Z10	X11	Y11	Z11	X12	Y12	Z12	X13	Y13	Z13	X14	Y14	Z14	X15	Y15	Z15	X16	Y16	Z16	X17	Y17	Z17	X18	Y18	Z18	
25	0.208333	73.1069	-40.2861	15.2099	58.3808	-43.6085	-12.4167	54.8849	-48.64	-38.8469	70.7411	-61.0078	-59.7812	100.317	-10.0375	-46.989	98.0087	-5.4074	-75.8805	93.8922	-8.78765	-102.81	116.207	-25.7288	-61.7866	102.887	-42.3078	-84.7152	82.7116	-76.3065	-65.364	138.495	-32.5651	-50.6645	137.836	-30.3672	-81.3214	128.014	-39.6468	-102.781	153.412	-53.8494	-33.5027	165.041	-50.7403	-51.6605	173.967	-49.7713	-76.3149	139.413	-42.5433	3.49261	139.767	-49.2383	30.0792	111.435	-27.7783	19.0603	
26	0.216667	74.9401	-43.9382	15.4761	59.1295	-46.2124	-11.1179	52.0225	-50.0196	-40.5399	68.3638	-60.7658	-63.1407	94.5614	-7.58445	-45.4378	94.0625	-2.3428	-73.0387	84.2116	-2.49475	-100.898	111.196	-20.2939	-57.4626	98.2091	-41.3806	-84.1308	86.8701	-72.482	-69.0418	132.114	-23.4872	-51.9366	130.907	-21.9726	-80.6278	126.129	-34.2625	-107.417	153.104	-46.5389	-35.0383	160.31	-38.1053	-55.0427	168.873	-37.461	-76.7475	134.545	-36.6412	0.134175	139.143	-47.2132	27.6898	108.901	-25.5272	20.7525	
27	0.225	70.5981	-45.5591	18.9536	54.2108	-48.5484	-10.763	52.6884	-50.8488	-45.7277	66.3581	-62.0389	-64.2359	93.8476	-7.29704	-47.5002	88.6203	-0.571461	-72.3091	81.6001	0.0897815	-100.761	108.358	-20.143	-58.9837	97.4673	-39.8775	-84.9252	82.0511	-73.2842	-66.4271	132.13	-26.0963	-48.6015	128.221	-20.4567	-78.462	125.966	-31.8624	-107.239	149.705	-44.3538	-34.1107	162.87	-39.4146	-51.9482	167.446	-31.3959	-78.108	134.001	-34.9383	-0.978102	134.93	-44.0516	31.5666	105.949	-24.9624	16.5723	
28	0.233333	70.627	-48.2827	16.0174	54.7871	-50.1217	-14.2361	52.474	-54.4988	-41.5954	66.5227	-63.7329	-64.2645	88.7389	-6.76904	-48.5129	84.4958	-1.57697	-72.0334	79.0447	-2.35743	-102.505	105.927	-21.7558	-60.1309	93.5906	-39.7726	-83.6574	82.6797	-75.8076	-66.7406	128.721	-25.3142	-51.9969	129.488	-22.2973	-78.2601	124.454	-29.7686	-104.77	147.735	-44.1839	-35.1472	159.574	-36.5641	-53.7152	170.015	-33.572	-73.6567	130.846	-35.2372	1.87402	134.933	-46.2819	30.7056	101.205	-25.9691	16.3329	
29	0.241667	72.972	-51.4362	18.2472	55.6435	-54.464	-10.9442	50.9458	-56.6753	-44.2107	71.3366	-64.57	-63.7945	91.7266	-10.2795	-50.0208	86.279	-3.90851	-71.9973	81.8522	-3.59629	-98.0944	107.57	-23.5895	-61.4723	95.8418	-45.1864	-83.1796	82.514	-77.8357	-63.3139	130.128	-28.1603	-49.9858	128.693	-22.9502	-79.2668	123.639	-28.4747	-106.536	147.615	-45.3812	-34.1434	161.527	-37.1556	-54.2085	172.149	-33.667	-72.1974	132.268	-36.0653	0.40085	137.168	-46.6935	30.3613	100.634	-29.6818	19.9924	
30	0.25	73.0916	-49.148	15.2515	57.0819	-52.0934	-13.6745	54.8502	-56.4716	-42.4327	70.0744	-63.8602	-62.1772	89.3921	-8.22305	-47.1665	89.5606	-3.25364	-74.555	84.7269	-1.22616	-98.0111	108.978	-22.6991	-60.6624	97.3699	-43.8883	-84.5515	88.8086	-76.2339	-65.5562	132.13	-25.2373	-52.4451	129.609	-20.5538	-78.709	128.831	-28.6553	-109.127	148.61	-42.1067	-35.9487	159.5	-33.5175	-55.0687	171.132	-29.3401	-72.5935	134.716	-36.1109	0.528262	136.375	-45.1753	27.1513	103.935	-28.2771	19.1818	
31	0.258333	77.1427	-47.3712	14.4187	61.1835	-49.2409	-18.1717	59.1083	-52.7413	-45.6253	75.2755	-60.7615	-68.2707	96.6423	-6.39335	-46.9226	91.0513	1.94008	-76.0726	89.0964	2.33883	-101.726	113.229	-17.5047	-63.2391	103.345	-38.2172	-86.5564	90.8126	-73.5399	-67.8906	133.939	-20.3561	-54.331	135.037	-17.1572	-80.8116	130.035	-20.3325	-105.889	154.382	-39.0962	-36.3438	163.166	-29.8221	-54.5732	172.786	-22.2501	-75.4623	135.967	-31.5939	-1.38905	138.136	-40.1596	28.9677	109.763	-26.294	16.3324	
32	0.266667	78.8459	-44.5877	14.0643	64.6312	-45.5423	-21.7479	62.7238	-47.2136	-52.1632	82.416	-54.7556	-71.7598	99.4409	-0.422969	-47.5984	91.7414	8.76338	-78.5475	89.9051	8.78639	-100.568	116.968	-11.1607	-60.6757	104.758	-30.0021	-88.6889	100.179	-66.2979	-74.3973	138.86	-14.1762	-53.4907	138.548	-8.32197	-80.1481	137.938	-13.9309	-110.048	156.981	-31.7496	-36.6012	171.428	-23.5241	-54.4497	178.501	-14.1338	-78.8059	143.086	-26.0943	-1.21253	145.681	-37.7396	23.9681	113.445	-20.4246	11.934	
33	0.275	84.9328	-41.9994	8.20865	68.5284	-43.7804	-21.8578	68.2297	-44.634	-53.5194	87.7079	-47.3526	-77.6457	99.532	8.4318	-52.7195	96.7727	15.5666	-77.3948	97.0568	16.2726	-103.225	123.761	-4.53097	-62.3721	112.022	-20.3314	-91.8905	104.587	-56.4776	-81.5476	144.798	-4.50518	-57.6435	145.881	1.24973	-81.8355	146.063	-3.62709	-108.374	163.587	-21.3003	-39.434	175.637	-12.293	-55.307	187.499	-2.25885	-78.0442	145.494	-18.0026	-2.58496	146.46	-29.9222	20.7931	112.031	-17.6393	12.9967	
34	0.283333	90.6554	-38.9272	1.78231	74.114	-39.219	-29.4612	76.9163	-39.999	-55.6684	93.2919	-41.5854	-82.0326	107.638	10.3404	-54.6188	98.6483	21.674	-82.9715	98.7735	23.213	-104.846	122.158	3.90506	-67.8206	117.322	-12.3961	-94.184	112.68	-51.9717	-82.9811	146.158	1.81976	-57.4143	149.608	7.8599	-81.3795	146.557	6.88414	-113.69	167.168	-14.7663	-41.905	180.032	-4.67307	-58.2824	188.009	6.07415	-77.7973	149.733	-16.8221	-5.11331	149.541	-28.6517	20.5844	116.464	-13.5301	7.29346	
35	0.291667	94.1607	-40.536	1.58582	78.8902	-38.2806	-34.1135	78.5354	-38.8742	-62.6273	99.379	-40.5763	-80.823	105.517	14.6877	-58.3911	105.185	20.6172	-82.044	99.2892	25.3165	-106.806	127.163	6.17375	-71.5686	121.568	-12.2149	-97.7603	119.798	-49.3343	-87.1241	151.671	2.45977	-58.9593	149.224	11.8377	-87.0415	152.062	9.26038	-116.789	170.382	-9.94274	-45.0952	179.643	-2.62096	-58.7773	191.047	7.75275	-80.6249	149.164	-11.7266	-6.75748	152.681	-27.5635	20.2417	121.743	-12.7096	6.11495	
36	0.3	94.7285	-40.2849	-4.49896	81.3831	-42.8993	-33.9272	83.2932	-39.3716	-68.8868	102.226	-42.9756	-85.4857	110.609	11.6846	-60.3278	103.162	20.3405	-85.1326	104.127	21.8076	-109.954	125.563	4.28701	-73.0436	123.687	-13.2032	-98.921	117.75	-53.0254	-87.882	150.679	1.54337	-61.0906	151.573	9.23498	-90.357	151.197	7.33766	-118.231	172.57	-14.9935	-44.8493	185.757	-0.227564	-64.1652	191.457	8.01754	-78.3879	149.919	-14.7281	-10.1894	151.74	-24.8995	13.9913	121.008	-15.9012	5.79659	
